HIERARCHY
ROOT Hips
{
	OFFSET	0.00	0.00	0.00
	CHANNELS 6 Xposition Yposition Zposition Zrotation Xrotation Yrotation
	JOINT Spine
	{
		OFFSET	 0.00	0.01	 0.00
		CHANNELS 3 Zrotation Xrotation Yrotation
		JOINT Spine1
		{
			OFFSET	 0.00	 2.45913012437421	 0.00
			CHANNELS 3 Zrotation Xrotation Yrotation
            JOINT Neck
            {
                OFFSET	 0.00	 2.48462964506057	 0.00
                CHANNELS 3 Zrotation Xrotation Yrotation
                JOINT Head
                {
                    OFFSET	 0.00	 0.927524780924562	 0.00
                    CHANNELS 3 Zrotation Xrotation Yrotation
                    End Site 
                    {
                        OFFSET	 0.00	 1.14999962169752	 0.00
                    }
                }
            }
			JOINT LeftShoulder
			{
				OFFSET	 0.00	 2.48462964506057	 0.00
				CHANNELS 3 Zrotation Xrotation Yrotation
				JOINT LeftUpArm
				{
					OFFSET	 0.00	 1.24881979654096	 0.00
					CHANNELS 3 Zrotation Xrotation Yrotation
					JOINT LeftForeArm
					{
						OFFSET	 0.00	2.59758046908119	 0.00
						CHANNELS 3 Zrotation Xrotation Yrotation
						JOINT LeftHand
						{
							OFFSET	 0.00	2.45542024364365	 0.00
							CHANNELS 3 Zrotation Xrotation Yrotation
							JOINT LeftHandThumb 
							{
								OFFSET	 0.00	0.00	 0.00
								CHANNELS 3 Zrotation Xrotation Yrotation
								End Site
								{
									OFFSET	 0.00	0.00	1.00000003353624
								}
							}
							JOINT L_Wrist_End 
							{
								OFFSET	 0.00	0.99999967115358	 0.00
								CHANNELS 3 Zrotation Xrotation Yrotation
								End Site 
								{
									OFFSET	 0.00	 0.00	 0.00
								}
							}
						}
					}
				}
			}
			JOINT RightShoulder
			{
				OFFSET	 0.00	 2.48462964506057	 0.00
				CHANNELS 3 Zrotation Xrotation Yrotation
				JOINT RightUpArm
				{
					OFFSET	 0.00	 1.24881979654096	 0.00
					CHANNELS 3 Zrotation Xrotation Yrotation
					JOINT RightForeArm
					{
						OFFSET	 0.00	2.59758046908119	 0.00
						CHANNELS 3 Zrotation Xrotation Yrotation
						JOINT RightHand
						{
							OFFSET	 0.00	2.45542024364365	 0.00
							CHANNELS 3 Zrotation Xrotation Yrotation
							JOINT RightHandThumb 
							{
								OFFSET	 0.00	0.00	 0.00
								CHANNELS 3 Zrotation Xrotation Yrotation
								End Site
								{
									OFFSET	 0.00	0.00	1.00000003353624
								}
							}
							JOINT R_Wrist_End 
							{
								OFFSET	 0.00	0.99999967115358	 0.00
								CHANNELS 3 Zrotation Xrotation Yrotation
								End Site 
								{
									OFFSET	 0.00	 0.00	 0.00
								}
							}
						}
					}
				}
			}
		}
	}
	JOINT LeftUpLeg
	{
		OFFSET	 1.2719394002717	 0.00	 0.00
		CHANNELS 3 Zrotation Xrotation Yrotation
		JOINT LeftLowLeg
		{
			OFFSET	 0.00	-4.3429100912261	 0.00
			CHANNELS 3 Zrotation Xrotation Yrotation
			JOINT LeftFoot
			{
				OFFSET	 0.00	-4.48767017425826	 0.00
				CHANNELS 3 Zrotation Xrotation Yrotation
				JOINT LeftToeBase
                {
                    OFFSET	 0.00	0.00	 1.51507020887566
                    CHANNELS 3 Zrotation Xrotation Yrotation
                    End Site 
                    {
                        OFFSET	 0.00	0.00	 0.75000010571191
                    }
                }
			}
		}
	}
	JOINT RightUpLeg
	{
		OFFSET	 -1.2719393604653	 0.00	 0.00
		CHANNELS 3 Zrotation Xrotation Yrotation
		JOINT RightLowLeg
		{
			OFFSET	 0.00	-4.3429100912261	 0.00
			CHANNELS 3 Zrotation Xrotation Yrotation
			JOINT RightFoot
			{
				OFFSET	 0.00	-4.48767017425826	 0.00
				CHANNELS 3 Zrotation Xrotation Yrotation
				JOINT RightToeBase
                {
                    OFFSET	 0.00	0.00	 1.51507020887566
                    CHANNELS 3 Zrotation Xrotation Yrotation
                    End Site 
                    {
                        OFFSET	 0.00	0.00	 0.749999965609858
                    }
                }   
			}
		}
	}
}
MOTION 
Frames:	16 
Frame Time: 0.02 
 -1.8988900756835938 -0.25374000549316406 9.388510131835938 -162.723 77.6551 888.54 6.37734 -23.938 1.74828 -1.75604 12.6377 1.82671 -10.3284 36.6254 13.9233 -31.2772 -67.6568 -9.05842 -119.5823 5.65692 16.1425 -36.0741 32.3429 2.06687 0.0 36.4341 0.0 16.8996 -4.68064 18.9057 0.0 0.0 0.0 0.0 0.0 0.0 119.5974 0.606993 -6.79378 38.7558 25.9874 -373.033 0.0 27.597 0.0 -10.6565 -2.10867 -3.55497 0.0 0.0 0.0 0.0 0.0 0.0 0.381612 -11.5589 -30.3083 0.0 7.44934 0.0 -2.11491 -2.1112995 13.9355 0.0 -9.914391 0.0 7.8426 -6.73426 389.727 0.0 4.26447 0.0 4.81846 1.4535999 -27.8154 0.0 -17.24821 0.0 
  -1.9044000244140624 -0.2539739990234375 9.388909912109375 -162.348 77.742 888.587 6.43942 -23.9184 1.67619 -1.8119 12.6202 1.70796 -10.3164 36.8007 13.9172 -31.1219 -67.6126 -8.66512 -119.4436 5.61232 16.1583 -36.2238 32.3116 2.34707 0.0 37.5196 0.0 16.9448 -3.96127 18.2583 0.0 0.0 0.0 0.0 0.0 0.0 119.6277 0.579314 -6.78869 38.9534 26.5215 -373.897 0.0 27.8069 0.0 -11.0468 -1.7567 -5.90734 0.0 0.0 0.0 0.0 0.0 0.0 0.331446 -11.5937 -30.7564 0.0 7.61765 0.0 -2.05307 -2.0706997 14.0377 0.0 -9.95621 0.0 7.85572 -6.57503 389.466 0.0 4.14399 0.0 4.77974 1.4877005 -27.9618 0.0 -17.25242 0.0 
  -1.9101499938964843 -0.25545999526977536 9.389219970703126 -162.061 77.8682 888.669 6.4074 -23.8812 1.54798 -1.74495 12.6421 1.60141 -10.2352 36.9591 13.8399 -30.9572 -67.5752 -8.25767 -119.3337 5.49699 16.0894 -36.5131 32.0791 2.69362 0.0 38.1587 0.0 16.9824 -3.11372 17.6624 0.0 0.0 0.0 0.0 0.0 0.0 119.6172 0.612441 -6.84343 39.1243 26.8249 -374.819 0.0 27.9135 0.0 -11.4941 -1.4474 -7.566 0.0 0.0 0.0 0.0 0.0 0.0 0.277558 -11.5574 -31.1727 0.0 7.74241 0.0 -1.91244 -2.0051994 14.188 0.0 -9.99501 0.0 7.86103 -6.3912 389.28 0.0 4.05683 0.0 4.72559 1.5152998 -28.1359 0.0 -17.28235 0.0 
  -1.9227799987792968 -0.24510799407958983 9.387470092773437 -162.779 77.4217 889.349 6.31496 -24.0767 1.62723 -1.59923 12.3422 1.75399 -10.0728 37.1719 13.6701 -30.8464 -67.6225 -8.01353 -119.322205 5.43159 16.0848 -36.7199 31.6402 2.98577 0.0 38.402 0.0 16.8125 -2.57421 16.55 0.0 0.0 0.0 0.0 0.0 0.0 119.7119 0.682122 -7.00935 39.1461 26.9049 -375.232 0.0 27.8706 0.0 -11.5968 -1.05111 -9.46917 0.0 0.0 0.0 0.0 0.0 0.0 0.257117 -12.1486 -31.0926 0.0 7.85958 0.0 -1.98446 -2.0340004 14.1209 0.0 -10.006929 0.0 7.92333 -7.0158 389.706 0.0 4.26892 0.0 4.86258 1.3275995 -28.3202 0.0 -17.28769 0.0 
  -1.9284500122070312 -0.2478230094909668 9.3872802734375 -162.629 77.4937 889.474 6.32455 -24.119 1.59506 -1.57412 12.4763 1.72471 -9.76291 37.2076 13.36 -30.4861 -67.5456 -7.5696 -119.2694 5.32027 16.0693 -37.0299 31.1277 3.18429 0.0 38.2563 0.0 16.3576 -2.22851 15.5996 0.0 0.0 0.0 0.0 0.0 0.0 119.7976 0.671985 -7.03244 39.2786 26.7484 -375.646 0.0 27.7373 0.0 -11.4757 -0.908041 -9.81534 0.0 0.0 0.0 0.0 0.0 0.0 0.21914 -12.1382 -31.3343 0.0 7.95213 0.0 -1.86697 -2.0118008 14.1784 0.0 -10.001659 0.0 7.92786 -6.89471 389.533 0.0 4.20919 0.0 4.8217 1.3205996 -28.4128 0.0 -17.28195 0.0 
  -1.933280029296875 -0.25114099502563475 9.386619873046875 -162.364 77.6084 889.463 6.34428 -24.1241 1.57364 -1.50731 12.6628 1.69984 -9.47054 37.173 13.0872 -30.0599 -67.4562 -7.17483 -119.3466 5.20516 16.0971 -37.1831 30.3929 3.42698 0.0 37.9657 0.0 15.871 -2.39435 14.8642 0.0 0.0 0.0 0.0 0.0 0.0 119.9009 0.634184 -7.09304 39.3469 26.4522 -375.867 0.0 27.4352 0.0 -11.065 -0.845962 -10.0707 0.0 0.0 0.0 0.0 0.0 0.0 0.205773 -12.064 -31.6036 0.0 8.02521 0.0 -1.83823 -2.0284996 14.2339 0.0 -9.977039 0.0 7.94707 -6.72028 389.387 0.0 4.14344 0.0 4.80786 1.3023996 -28.5176 0.0 -17.29147 0.0 
  -1.936929931640625 -0.25746999740600585 9.385919799804688 -162.001 77.8551 889.37 6.3924 -24.0928 1.5846 -1.50201 13.0116 1.6884 -9.09431 37.0719 12.7561 -29.5808 -67.3956 -6.78229 -119.4194 5.09535 16.1215 -37.3467 29.5482 3.72495 0.0 37.4364 0.0 15.3366 -2.94834 14.2774 0.0 0.0 0.0 0.0 0.0 0.0 120.0454 0.544302 -7.05099 39.393 25.9211 -375.94 0.0 27.0749 0.0 -10.6333 -1.03389 -9.64356 0.0 0.0 0.0 0.0 0.0 0.0 0.183088 -11.8273 -31.9396 0.0 8.07923 0.0 -1.77665 -2.0445995 14.3514 0.0 -9.97835 0.0 7.93748 -6.36561 389.055 0.0 4.00448 0.0 4.70244 1.3430996 -28.5213 0.0 -17.28541 0.0 
  -1.9445399475097656 -0.25805900573730467 9.383880004882812 -162.417 77.6834 889.778 6.34286 -24.2851 1.66146 -1.35693 13.1676 1.82735 -8.8236 36.967 12.531 -29.2021 -67.3726 -6.58813 -119.5895 4.89324 16.1283 -37.5114 28.6137 4.14921 0.0 36.5678 0.0 15.0258 -3.70422 14.4389 0.0 0.0 0.0 0.0 0.0 0.0 120.1845 0.448888 -7.02773 39.378 25.2503 -375.906 0.0 26.4957 0.0 -10.0966 -0.965549 -9.71083 0.0 0.0 0.0 0.0 0.0 0.0 0.1533 -12.0468 -31.8992 0.0 8.15553 0.0 -1.7955 -2.1049004 14.3254 0.0 -9.97719 0.0 7.93965 -6.56797 389.158 0.0 4.05014 0.0 4.71533 1.2360001 -28.5456 0.0 -17.27256 0.0 
  -1.9503999328613282 -0.26289600372314453 9.382249755859375 -162.457 77.6585 889.931 6.30528 -24.4064 1.66239 -1.18392 13.3943 1.87868 -8.58148 36.8974 12.3126 -28.8992 -67.3576 -6.46673 -119.8021 4.63675 16.1369 -37.613 27.5464 4.66374 0.0 35.3733 0.0 14.3507 -4.19208 14.2597 0.0 0.0 0.0 0.0 0.0 0.0 120.3183 0.327674 -7.12139 39.33 24.457 -375.754 0.0 25.8747 0.0 -9.5252 -1.24899 -8.93223 0.0 0.0 0.0 0.0 0.0 0.0 0.146668 -12.0829 -32.0507 0.0 8.209 0.0 -1.78416 -2.1651 14.3741 0.0 -9.97313 0.0 7.95101 -6.54759 389.085 0.0 4.00854 0.0 4.69768 1.1828003 -28.5635 0.0 -17.27249 0.0 
  -1.9549400329589843 -0.2687080001831055 9.380449829101563 -162.535 77.5846 890.103 6.38522 -24.5635 1.75438 -1.18624 13.6149 1.93617 -8.16887 36.8428 11.942 -28.5162 -67.3664 -6.14262 -119.9624 4.42311 16.0787 -37.7559 26.2636 5.65827 0.0 33.999 0.0 14.7801 -4.86899 15.2591 0.0 0.0 0.0 0.0 0.0 0.0 120.5221 0.135555 -7.05761 39.3342 23.451 -375.715 0.0 25.1337 0.0 -8.8602 -1.75646 -8.76042 0.0 0.0 0.0 0.0 0.0 0.0 0.142637 -12.1524 -32.1551 0.0 8.24439 0.0 -1.78366 -2.2346992 14.3961 0.0 -9.952829 0.0 7.96104 -6.57063 389.14 0.0 3.9772 0.0 4.68658 1.1143999 -28.673 0.0 -17.28487 0.0 
  -1.9638900756835938 -0.2691270065307617 9.37739990234375 -163.094 77.4685 890.48 6.29967 -24.5733 1.84845 -0.997985 13.6332 2.10083 -7.78256 36.8171 11.5489 -28.2703 -67.3674 -5.93614 -120.1883 4.12858 16.0285 -37.8949 24.8902 6.68895 0.0 32.2855 0.0 14.7858 -5.38875 16.6544 0.0 0.0 0.0 0.0 0.0 0.0 120.6449 0.0105209 -7.01824 39.3955 22.2576 -375.674 0.0 24.2446 0.0 -8.3975 -2.06544 -8.59812 0.0 0.0 0.0 0.0 0.0 0.0 0.147143 -12.2627 -31.9065 0.0 8.23511 0.0 -1.82562 -2.3190994 14.3035 0.0 -9.93161 0.0 7.97499 -6.76737 389.416 0.0 4.11773 0.0 4.69708 0.9499998 -28.7105 0.0 -17.246479 0.0 
  -1.966540069580078 -0.27079200744628906 9.3756298828125 -163.193 77.2096 890.559 6.49024 -24.7318 2.00347 -1.03145 13.6806 2.13905 -7.41134 36.7998 11.2145 -27.9596 -67.4123 -5.70437 -120.404 3.86154 15.8737 -38.0947 23.3228 7.70225 0.0 30.2647 0.0 14.9049 -5.91283 18.2589 0.0 0.0 0.0 0.0 0.0 0.0 120.8086 -0.205383 -6.89633 39.4858 20.9678 -375.721 0.0 23.207 0.0 -7.87871 -2.22875 -8.29457 0.0 0.0 0.0 0.0 0.0 0.0 0.175153 -12.5375 -31.8554 0.0 8.29728 0.0 -1.84313 -2.4251003 14.2695 0.0 -9.92141 0.0 8.03508 -7.04912 389.572 0.0 4.19799 0.0 4.74339 0.85429955 -28.7492 0.0 -17.239151 0.0 
  -1.9720199584960938 -0.2804290008544922 9.373939819335938 -163.474 77.164 890.731 6.51676 -24.8363 2.06762 -0.964349 13.8738 2.20242 -7.05996 36.6918 10.8547 -27.6336 -67.327 -5.42467 -120.558304 3.53399 15.9339 -38.3935 21.8631 8.34294 0.0 27.9386 0.0 14.3546 -5.87926 19.2235 0.0 0.0 0.0 0.0 0.0 0.0 120.9034 -0.38678 -6.88403 39.6618 19.6525 -375.644 0.0 22.0653 0.0 -7.49383 -2.52685 -7.85325 0.0 0.0 0.0 0.0 0.0 0.0 0.212403 -12.4798 -31.6796 0.0 8.20608 0.0 -1.81965 -2.4748993 14.2366 0.0 -9.923309 0.0 8.06128 -7.08143 389.758 0.0 4.28299 0.0 4.70693 0.7528 -28.8217 0.0 -17.22644 0.0 
  -1.9757000732421874 -0.28982500076293943 9.372109985351562 -163.613 77.1003 890.883 6.57796 -24.9357 2.07443 -0.93095 14.0612 2.18113 -6.87471 36.5523 10.6891 -27.371 -67.2584 -5.24092 -120.6942 3.23225 15.809 -38.8331 20.2052 8.87574 0.0 25.3196 0.0 13.6911 -6.0163 19.1067 0.0 0.0 0.0 0.0 0.0 0.0 120.9513 -0.63882 -6.73578 39.9496 18.2362 -375.604 0.0 20.7984 0.0 -7.11235 -2.64777 -7.37526 0.0 0.0 0.0 0.0 0.0 0.0 0.230483 -12.4742 -31.6669 0.0 8.16795 0.0 -1.71842 -2.5056 14.2551 0.0 -9.97308 0.0 8.09102 -7.11585 389.85 0.0 4.34704 0.0 4.65091 0.6630001 -28.9279 0.0 -17.23122 0.0 
  -1.9792100524902343 -0.2982159996032715 9.369970092773437 -163.71 76.9568 891.016 6.67861 -25.0382 2.08062 -0.93649 14.1349 2.12709 -6.64915 36.5118 10.4537 -27.3426 -67.2764 -5.12433 -120.7742 2.89879 15.6524 -39.3813 18.4826 9.17847 0.0 22.5257 0.0 12.7246 -6.65817 18.9282 0.0 0.0 0.0 0.0 0.0 0.0 120.9754 -0.916819 -6.64009 40.2867 16.7954 -375.391 0.0 19.4382 0.0 -6.59919 -2.83607 -7.0784 0.0 0.0 0.0 0.0 0.0 0.0 0.251012 -12.578 -31.6928 0.0 8.18035 0.0 -1.72806 -2.6126003 14.243 0.0 -9.95284 0.0 8.14188 -7.24847 389.8 0.0 4.43932 0.0 4.58131 0.5773001 -28.9046 0.0 -17.225151 0.0 
  -1.9839199829101561 -0.3104700088500977 9.368510131835938 -163.911 76.9921 891.153 6.75571 -25.0226 2.11729 -0.967116 14.2528 2.10991 -6.52127 36.5228 10.3233 -27.4156 -67.3408 -5.09886 -120.788605 2.5942 15.5785 -40.0436 16.7497 9.04417 0.0 19.5989 0.0 11.88 -7.73996 19.1856 0.0 0.0 0.0 0.0 0.0 0.0 121.0105 -1.2384 -6.58355 40.6726 15.259 -375.01 0.0 17.9901 0.0 -6.47132 -2.53563 -7.00935 0.0 0.0 0.0 0.0 0.0 0.0 0.272752 -12.4341 -31.6388 0.0 8.10881 0.0 -1.79785 -2.7178001 14.2405 0.0 -9.896931 0.0 8.17471 -7.20191 389.823 0.0 4.56524 0.0 4.48129 0.4864998 -28.9083 0.0 -17.2237 0.0 
